<svg width="113" height="145" viewBox="0 0 113 145" fill="none" xmlns="http://www.w3.org/2000/svg">
<path d="M79 87.4851C79 105.995 64.0015 121 45.5 121C26.9985 121 12 105.995 12 87.4851C12 68.9754 40.9188 27.4498 45.5 27.4498C45.5 21.9126 79 68.9754 79 87.4851Z" fill="#77C4DD" fill-opacity="0.7"/>
<path d="M98 92.8333C98 108.389 85.464 121 70 121C54.536 121 42 108.389 42 92.8333C42 77.2772 66.1709 42.378 70 42.378C70 37.7244 98 77.2772 98 92.8333Z" fill="#66ACC1" fill-opacity="0.7"/>
<path d="M98 92.8333C98 108.389 85.464 121 70 121C54.536 121 42 108.389 42 92.8333C42 77.2772 66.1709 42.378 70 42.378C70 37.7244 98 77.2772 98 92.8333Z" fill="#66ACC1" fill-opacity="0.7"/>
<path d="M35.8466 102.901C20.2587 125.962 7.51562 144.584 4.44085 142.506C1.36609 140.428 13.896 121.661 29.4839 98.6004C45.0719 75.5397 53.3341 53.8885 60.8898 58.9958C66.4571 62.759 51.4346 79.8406 35.8466 102.901Z" fill="#FEEB42"/>
<path d="M66.6621 44.8332C73.7543 34.6313 85.3452 16.968 87.5277 18.4853C96.1295 5.75997 78.1287 37.5881 71.0364 47.7901C63.9441 57.992 61.4898 68.6688 56.1265 64.9402C52.1745 62.1929 59.5698 55.0352 66.6621 44.8332Z" fill="#FEEB42"/>
<path d="M104.147 36.1427C99.5445 48.095 79.3719 72.8591 59.8691 59.6762C41.9615 47.5716 55.4429 12.9703 66.7666 10.8752C73.1685 1.40429 46.5243 40.8215 64.0601 52.6748C83.9352 66.1094 107.597 27.1842 104.147 36.1427Z" fill="#FEEB42"/>
<path d="M48.1422 53.855L59.0745 61.2447L70.4116 68.908L68.5684 71.6349L55.8488 66.0167L46.299 56.5818L48.1422 53.855Z" fill="#828282"/>
<path d="M71.5798 2.02127L62.6539 23.7974L53.3343 23.8709L71.5798 2.02127Z" fill="#EEDB35"/>
<path d="M109.756 27.8267L92.8768 44.2268L96.2826 52.902L109.756 27.8267Z" fill="#EEDB35"/>
<path d="M92.9582 10.6785L81.1391 34.8442L74.9401 30.654L92.9582 10.6785Z" fill="#F9E63D"/>
<circle cx="60.5617" cy="59.4629" r="4.79995" transform="rotate(34.0568 60.5617 59.4629)" fill="#77C4DD"/>
</svg>
